# xmcd
#
# Track frame offsets: 
#        150
#        23028
#        42129
#        57879
#        71852
#        89261
#        106318
#        126697
#        151535
#        172108
#
# Disc length: 2644 seconds
#
# Revision: 0
# Processed by: cddbd v1.5.2PL0 Copyright (c) Steve Scherf et al.
# Submitted via: ExactAudioCopy v1.0b4
#
DISCID=820a520a
DTITLE=Mark Crissinger - Believe In Love
DYEAR=2019
DGENRE=blues
TTITLE0=Believe In Love
TTITLE1=I Hear You're Talking
TTITLE2=I'ma Gonna Love You
TTITLE3=Roll With The Punches
TTITLE4=Bluesersize Boogie
TTITLE5=La Hoochie Coo
TTITLE6=Nothing Left To Lose
TTITLE7=Heartache And Trouble
TTITLE8=Hard No
TTITLE9=Hornby
EXTD=
EXTT0=
EXTT1=
EXTT2=
EXTT3=
EXTT4=
EXTT5=
EXTT6=
EXTT7=
EXTT8=
EXTT9=
PLAYORDER=
